# AST/ASF file generated using VICON BodyLanguage
# -----------------------------------------------
:version 1.10
:name VICON
:units
  mass 1.0
  length 0.45
  angle deg
:documentation
   .ast/.asf automatically generated from VICON data using
   VICON BodyBuilder and BodyLanguage model FoxedUp or BRILLIANT.MOD
:root
   order TX TY TZ RX RY RZ
   axis XYZ
   position 0 0 0  
   orientation 0 0 0 
:bonedata
  begin
     id 1 
     name lhipjoint
     direction 0.700308 -0.549349 0.455834 
     length 2.59063 
     axis 0 0 0  XYZ
  end
  begin
     id 2 
     name lfemur
     direction 0.34202 -0.939693 0  
     length 6.31066  
     axis 0 0 20  XYZ
    dof rx ry rz
    limits (-160.0 20.0)
           (-70.0 70.0)
           (-60.0 70.0)
  end
  begin
     id 3 
     name ltibia
     direction 0.34202 -0.939693 0   
     length 7.36093   
     axis 0 0 20   XYZ
    dof rx
    limits (-10.0 170.0)
  end
  begin
     id 4 
     name lfoot
     direction 0.0905332 -0.248738 0.96433   
     length 2.0233   
     axis -90 7.62852e-016 20   XYZ
    dof rx rz
    limits (-45.0 90.0)
           (-70.0 20.0)
  end
  begin
     id 5 
     name ltoes
     direction 1.53573e-011 -4.21855e-011 1   
     length 1.01524   
     axis -90 7.62852e-016 20   XYZ
    dof rx
    limits (-90.0 20.0)
  end
  begin
     id 6 
     name rhipjoint
     direction -0.61416 -0.607328 0.503944   
     length 2.34332  
     axis 0 0 0  XYZ 
  end
  begin
     id 7 
     name rfemur
     direction -0.34202 -0.939693 0   
     length 6.58548   
     axis 0 0 -20   XYZ
    dof rx ry rz
    limits (-160.0 20.0)
           (-70.0 70.0)
           (-70.0 60.0)
  end
  begin
     id 8 
     name rtibia
     direction -0.34202 -0.939693 0   
     length 7.20707   
     axis 0 0 -20   XYZ
    dof rx
    limits (-10.0 170.0)
 end
 begin
     id 9 
     name rfoot
     direction -0.136772 -0.375778 0.916561   
     length 1.92184  
     axis -90 -7.62852e-016 -20   XYZ
    dof rx rz
    limits (-45.0 90.0)
           (-20.0 70.0)
  end
  begin
     id 10 
     name rtoes
     direction -1.53535e-011 -4.21828e-011 1   
     length 0.951089   
     axis -90 -7.62852e-016 -20   XYZ
    dof rx
    limits (-90.0 20.0)
  end
  begin
     id 11 
     name lowerback
     direction -0.0444974 0.988086 -0.147332   
     length 1.9609   
     axis 0 0 0   XYZ
    dof rx ry rz
    limits (-20.0 45.0)
           (-30.0 30.0)
           (-30.0 30.0)
  end
  begin
     id 12 
     name upperback
     direction 0.00613146 0.999513 0.0306081   
     length 1.94944   
     axis 0 0 0   XYZ
    dof rx ry rz
    limits (-20.0 45.0)
           (-30.0 30.0)
           (-30.0 30.0)
  end
  begin
     id 13 
     name thorax
     direction 0.0254621 0.994518 0.101418   
     length 2.0119   
     axis 0 0 0   XYZ
    dof rx ry rz
    limits (-20.0 45.0)
           (-30.0 30.0)
           (-30.0 30.0)
  end
  begin
     id 14 
     name lowerneck
     direction 0.0168698 0.977854 0.208608   
     length 1.6375   
     axis 0 0 0   XYZ
    dof rx ry rz
    limits (-20.0 45.0)
           (-30.0 30.0)
           (-30.0 30.0)
  end
  begin
     id 15 
     name upperneck
     direction -0.0283988 0.989338 -0.142843   
     length 1.6851   
     axis 0 0 0   XYZ
    dof rx ry rz
    limits (-20.0 45.0)
           (-30.0 30.0)
           (-30.0 30.0)
  end
  begin
     id 16
     name head
     direction -0.0129422 0.99741 -0.0707489  
     length 1.69029  
     axis 0 0 0   XYZ
    dof rx ry rz
    limits (-20.0 45.0)
           (-30.0 30.0)
           (-30.0 30.0)
  end
  begin
     id 17 
     name lclavicle
     direction 0.820295 0.564628 -0.0911715  
     length 3.16484  
     axis 0 0 0   XYZ
    dof ry rz
    limits (-20.0 10.0)
           (0.0 20.0)
  end
  begin
     id 18 
     name lhumerus
     direction 1 -4.48969e-011 1.00186e-027   
     length 5.17853   
     axis 180 -30 -90   XYZ
    dof rx ry rz
    limits (-60.0 90.0)
           (-90.0 90.0)
           (-90.0 90.0)
  end
  begin
     id 19
     name lradius
     direction 1 -4.48966e-011 -1.52922e-027   
     length 3.40399   
     axis 180 -30 -90   XYZ
    dof rx
    limits (-10.0 170.0)
  end
  begin
     id 20
     name lwrist
     direction 1 -4.48981e-011 -3.80893e-027   
     length 1.70199   
     axis 1.1049e-015 90 90   XYZ
    dof ry
    limits (-180.0 0.0)
 end
  begin
     id 21 
     name lhand
     direction 1 -4.48957e-011 -7.61786e-027   
     length 0.708964   
     axis 4.86085e-015 90 90   XYZ
    dof rx rz
    limits (-90.0 90.0)
           (-45.0 45.0)
  end
  begin
     id 22 
     name lfingers
     direction 1 -4.48929e-011 -1.52357e-026   
     length 0.571585   
     axis 9.7217e-015 90 90   XYZ
    dof rx
    limits (0.0 90.0)
  end
  begin
     id 23
     name lthumb
     direction 0.707107 -6.34905e-011 0.707107   
     length 0.820685   
     axis -90 45 2.85299e-015   XYZ
    dof rx rz
    limits (-45.0 45.0)
           (-45.0 45.0)
  end
  begin
     id 24 
     name rclavicle
     direction -0.858602 0.463947 -0.218075   
     length 3.35137  
     axis 0 0 0   XYZ 
    dof ry rz
    limits (-10.0 20.0)
           (-20.0 0.0)
  end
  begin
     id 25 
     name rhumerus
     direction -1 -4.48969e-011 -1.98511e-027  
     length 5.42351   
     axis 180 30 90   XYZ
    dof rx ry rz
    limits (-90.0 60.0)
           (-90.0 90.0)
           (-90.0 90.0)
  end
  begin
     id 26 
     name rradius
     direction -1 -4.48961e-011 -2.82624e-027   
     length 3.42066   
     axis 180 30 90   XYZ
    dof rx
    limits (-10.0 170.0)
  end
  begin
     id 27 
     name rwrist
     direction -1 -4.48966e-011 -3.80893e-027   
     length 1.71033   
     axis 1.1049e-015 -90 -90   XYZ
    dof ry
    limits (-180.0 0.0)
  end
  begin
     id 28
     name rhand
     direction -1 -4.48964e-011 -7.61786e-027   
     length 0.743608   
     axis 4.86085e-015 -90 -90   XYZ
    dof rx rz
    limits (-90.0 90.0)
           (-45.0 45.0)
  end
  begin
     id 29
     name rfingers
     direction -1 -4.48961e-011 -1.52357e-026   
     length 0.599516   
     axis 9.7217e-015 -90 -90   XYZ
    dof rx
    limits (0.0 90.0)
  end
  begin
     id 30
     name rthumb
     direction -0.707107 -6.34913e-011 0.707107   
     length 0.860789   
     axis -90 -45 -2.85299e-015   XYZ
    dof rx rz
    limits (-45.0 45.0)
           (-45.0 45.0)
  end
:hierarchy
  begin
    root lhipjoint rhipjoint lowerback
    lhipjoint lfemur
    lfemur ltibia
    ltibia lfoot
    lfoot ltoes
    rhipjoint rfemur
    rfemur rtibia
    rtibia rfoot
    rfoot rtoes
    lowerback upperback
    upperback thorax
    thorax lowerneck lclavicle rclavicle
    lowerneck upperneck
    upperneck head
    lclavicle lhumerus
    lhumerus lradius
    lradius lwrist
    lwrist lhand lthumb
    lhand lfingers
    rclavicle rhumerus
    rhumerus rradius
    rradius rwrist
    rwrist rhand rthumb
    rhand rfingers
  end

#!OML:ASF E:\mmandel\Project 1\Capture day 1\Session 2\Subject.ASF
:FULLY-SPECIFIED
:DEGREES
498
root 6.38228 8.2441 -0.428892 165.89 87.0168 130.776
lowerback 36.3079 0.865391 -0.480178
upperback 9.36463 1.82747 -1.47574
thorax -7.64262 1.30049 -2.04903
lowerneck -23.6982 4.39632 8.74107
upperneck 7.49664 4.75877 -10.0292
head 6.54185 1.75541 -4.11108
rclavicle -1.74931e-014 -2.94201e-014
rhumerus 71.122 -10.4718 -106.051
rradius 10.9226
rwrist -308.534
rhand -21.3367 29.9148
rfingers 7.12502
rthumb 5.04923 -0.00500966
lclavicle -1.74931e-014 -2.94201e-014
lhumerus 66 -2.83511 85.9891
lradius 11.6703
lwrist -13.8521
lhand -14.3199 -24.3046
lfingers 7.12502
lthumb 11.8206 5.34183
rfemur -146.621 -53.4794 77.945
rtibia 153.972
rfoot -34.074 8.86142
rtoes -12.4514
lfemur -164.25 58.7244 -67.5653
ltibia 142.551
lfoot -17.5537 -37.7064
ltoes -19.8907
499
root 6.26623 8.2099 -0.439982 171 87.2495 135.939
lowerback 35.9347 0.862103 -0.436508
upperback 9.33441 1.83356 -1.40175
thorax -7.5452 1.296 -1.98706
lowerneck -23.4709 4.43121 8.97329
upperneck 7.34893 4.76791 -10.207
head 6.47134 1.75908 -4.20673
rclavicle 1.59028e-015 1.2921e-014
rhumerus 71.0195 -10.5731 -107.314
rradius 10.4902
rwrist -305.099
rhand -21.0371 29.699
rfingers 7.12502
rthumb 5.33853 -0.213726
lclavicle 1.59028e-015 1.2921e-014
lhumerus 65.8728 -2.52313 86.2015
lradius 11.6115
lwrist -14.7479
lhand -14.3384 -24.484
lfingers 7.12502
lthumb 11.8028 5.16341
rfemur -145.14 -51.6968 76.1259
rtibia 154.007
rfoot -34.086 8.02633
rtoes -13.1538
lfemur -165.653 58.0771 -68.4367
ltibia 142.718
lfoot -18.7835 -37.0113
ltoes -22.0574
500
root 6.15638 8.18122 -0.454504 176.618 87.4287 141.684
lowerback 35.6805 0.826133 -0.318809
upperback 9.33688 1.83005 -1.34149
thorax -7.45166 1.29052 -1.9773
lowerneck -23.5071 4.39764 8.80472
upperneck 7.46518 4.73648 -9.93972
head 6.49804 1.75784 -4.09464
rclavicle -3.10104e-014 2.18663e-014
rhumerus 70.8803 -10.7148 -108.537
rradius 10.2745
rwrist -302.141
rhand -20.8422 29.5798
rfingers 7.12502
rthumb 5.52666 -0.328143
lclavicle -3.10104e-014 2.18663e-014
lhumerus 65.8543 -2.14446 86.7508
lradius 11.2391
lwrist -16.059
lhand -14.6523 -25.3115
lfingers 7.12502
lthumb 11.5001 4.35303
rfemur -143.792 -50.1509 74.4833
rtibia 153.965
rfoot -34.1924 7.28063
rtoes -14.0394
lfemur -166.601 57.4524 -68.9955
ltibia 142.878
lfoot -20.8041 -35.9329
ltoes -25.9404
501
root 6.05489 8.1651 -0.469676 181.819 87.4742 147.152
lowerback 35.6154 0.745595 -0.187277
upperback 9.39741 1.78762 -1.3
thorax -7.36179 1.27331 -1.98399
lowerneck -23.9659 4.37149 8.42706
upperneck 7.94133 4.75075 -9.55273
head 6.70298 1.7678 -3.90395
rclavicle -3.1408e-014 -1.35174e-014
rhumerus 70.2879 -10.3105 -107.556
rradius 10.4675
rwrist -302.203
rhand -20.0465 29.318
rfingers 7.12502
rthumb 6.29495 -0.568488
lclavicle -3.1408e-014 -1.35174e-014
lhumerus 65.7523 -1.84376 87.298
lradius 11.1723
lwrist -17.3043
lhand -14.7072 -25.9524
lfingers 7.12502
lthumb 11.4472 3.71509
rfemur -142.827 -49.2281 73.5233
rtibia 153.803
rfoot -34.5895 6.52464
rtoes -15.9598
lfemur -166.373 56.7705 -68.5848
ltibia 142.885
lfoot -20.7845 -35.2257
ltoes -24.7899
502
root 5.95917 8.16355 -0.4805 182.869 87.518 148.549
lowerback 35.6945 0.670272 -0.256269
upperback 9.40558 1.67135 -1.3507
thorax -7.38414 1.22248 -1.96068
lowerneck -24.1838 4.42294 8.2521
upperneck 8.25038 4.84653 -9.37422
head 6.83627 1.81373 -3.80433
rclavicle -3.53837e-014 -2.50469e-014
rhumerus 69.3078 -9.38418 -104.999
rradius 10.7024
rwrist -304.761
rhand -18.1071 29.4461
rfingers 7.12502
rthumb 8.16693 -0.376041
lclavicle -3.53837e-014 -2.50469e-014
lhumerus 65.3609 -1.59881 87.2837
lradius 11.7208
lwrist -18.1221
lhand -14.1823 -26.0312
lfingers 7.12502
lthumb 11.9534 3.60749
rfemur -141.68 -48.2955 72.3346
rtibia 153.558
rfoot -34.9587 5.6309
rtoes -17.3289
lfemur -165.664 56.2739 -68.115
ltibia 142.719
lfoot -19.4724 -35.0515
ltoes -19.9436
503
root 5.86964 8.16587 -0.484988 184.238 87.658 150.172
lowerback 35.6872 0.729051 -0.447171
upperback 9.36135 1.67405 -1.33151
thorax -7.43341 1.22083 -1.8419
lowerneck -24.1795 4.34607 7.98849
upperneck 8.43597 4.77399 -8.99723
head 6.87059 1.79968 -3.64603
rclavicle 2.5842e-014 2.38542e-014
rhumerus 68.3546 -8.56178 -102.529
rradius 10.804
rwrist -307.572
rhand -16.1691 30.3261
rfingers 7.12502
rthumb 10.037 0.585442
lclavicle 2.5842e-014 2.38542e-014
lhumerus 65.5239 -2.13258 85.2579
lradius 11.2587
lwrist -16.722
lhand -13.8655 -26.4531
lfingers 7.12502
lthumb 12.2588 3.16762
rfemur -139.986 -46.7877 70.612
rtibia 153.256
rfoot -35.2716 4.43402
rtoes -17.4831
lfemur -165.297 55.7672 -67.9404
ltibia 142.535
lfoot -19.8948 -34.1404
ltoes -19.731
